<svg width="40" height="40" viewBox="" fill="none" xmlns="http://www.w3.org/2000/svg">
<path fill-rule="evenodd" clip-rule="evenodd" d="M9.30938 4.73504C9.30938 4.08107 9.4344 3.46815 9.68345 2.8943C9.9325 2.32245 10.2662 1.8197 10.6846 1.38606C11.102 0.952416 11.5961 0.612911 12.1671 0.367546C12.738 0.122182 13.3454 0 13.9882 0C14.631 0 15.2344 0.122182 15.7965 0.367546C16.3596 0.612911 16.8537 0.952416 17.28 1.38606C17.7062 1.8197 18.0399 2.32245 18.2811 2.8943C18.5223 3.46815 18.6434 4.08107 18.6434 4.73504C18.6434 5.39001 18.5223 6.00292 18.2811 6.57577C18.0399 7.14762 17.7062 7.65137 17.28 8.08402C16.8537 8.51766 16.3596 8.85716 15.7965 9.10253C15.2344 9.34789 14.631 9.47108 13.9882 9.47108C13.3454 9.47108 12.738 9.34789 12.1671 9.10253C11.5961 8.85716 11.102 8.51766 10.6846 8.08402C10.2662 7.65137 9.9325 7.14762 9.68345 6.57577C9.4344 6.00292 9.30938 5.39001 9.30938 4.73504ZM0 32.265V30.3751H21.44V27.5289H0V17.0764C0 16.4234 0.12108 15.8095 0.362256 15.2366C0.602447 14.6638 0.936155 14.161 1.3624 13.7274C1.78864 13.2948 2.2828 12.9553 2.84587 12.7099C3.40796 12.4645 4.01139 12.3413 4.65518 12.3413H23.3458C23.9886 12.3413 24.596 12.4645 25.1669 12.7099C25.7379 12.9553 26.232 13.2948 26.6494 13.7274C27.0678 14.161 27.3976 14.6638 27.6387 15.2366C27.8799 15.8095 28 16.4234 28 17.0764V18.9662H6.51174V21.8124H28V32.265C28 32.9189 27.8799 33.5328 27.6387 34.1047C27.3976 34.6775 27.0678 35.1803 26.6494 35.6139C26.232 36.0476 25.7379 36.3871 25.1669 36.6314C24.596 36.8768 23.9886 37 23.3458 37H4.65518C4.01139 37 3.40796 36.8768 2.84587 36.6314C2.2828 36.3871 1.78864 36.0476 1.3624 35.6139C0.936155 35.1803 0.602447 34.6775 0.362256 34.1047C0.12108 33.5328 0 32.9189 0 32.265Z" fill="red"/>
</svg>
